<mxfile host="app.diagrams.net" agent="Mozilla/5.0 (Windows NT 10.0; Win64; x64) AppleWebKit/537.36 (KHTML, like Gecko) Chrome/133.0.0.0 Safari/537.36 OPR/118.0.0.0" version="26.2.14">
  <diagram name="Page-1" id="PcURl7SGRuWSITqZQ5dG">
    <mxGraphModel dx="1385" dy="764" grid="1" gridSize="10" guides="1" tooltips="1" connect="1" arrows="1" fold="1" page="1" pageScale="1" pageWidth="850" pageHeight="1100" math="0" shadow="0">
      <root>
        <mxCell id="0" />
        <mxCell id="1" parent="0" />
        <mxCell id="z6SMHL8GOWCFRZcB8dkc-9" value="" style="edgeStyle=orthogonalEdgeStyle;rounded=0;orthogonalLoop=1;jettySize=auto;html=1;" edge="1" parent="1" source="z6SMHL8GOWCFRZcB8dkc-1" target="z6SMHL8GOWCFRZcB8dkc-8">
          <mxGeometry relative="1" as="geometry">
            <Array as="points">
              <mxPoint x="350" y="220" />
              <mxPoint x="350" y="220" />
            </Array>
          </mxGeometry>
        </mxCell>
        <mxCell id="z6SMHL8GOWCFRZcB8dkc-1" value="Speech-To-Text&lt;div&gt;Whisper(OpenAi)&lt;/div&gt;" style="rounded=0;whiteSpace=wrap;html=1;" vertex="1" parent="1">
          <mxGeometry x="100" y="190" width="120" height="60" as="geometry" />
        </mxCell>
        <mxCell id="z6SMHL8GOWCFRZcB8dkc-3" value="" style="endArrow=classic;html=1;rounded=0;entryX=0.25;entryY=0;entryDx=0;entryDy=0;exitX=0.717;exitY=0.963;exitDx=0;exitDy=0;exitPerimeter=0;" edge="1" parent="1" source="z6SMHL8GOWCFRZcB8dkc-4" target="z6SMHL8GOWCFRZcB8dkc-1">
          <mxGeometry width="50" height="50" relative="1" as="geometry">
            <mxPoint x="80" y="120" as="sourcePoint" />
            <mxPoint x="120" y="190" as="targetPoint" />
          </mxGeometry>
        </mxCell>
        <mxCell id="z6SMHL8GOWCFRZcB8dkc-4" value="Audio Call&lt;div&gt;(Input)&lt;/div&gt;" style="ellipse;whiteSpace=wrap;html=1;" vertex="1" parent="1">
          <mxGeometry y="40" width="120" height="80" as="geometry" />
        </mxCell>
        <mxCell id="z6SMHL8GOWCFRZcB8dkc-11" value="" style="edgeStyle=orthogonalEdgeStyle;rounded=0;orthogonalLoop=1;jettySize=auto;html=1;" edge="1" parent="1" source="z6SMHL8GOWCFRZcB8dkc-8" target="z6SMHL8GOWCFRZcB8dkc-10">
          <mxGeometry relative="1" as="geometry" />
        </mxCell>
        <mxCell id="z6SMHL8GOWCFRZcB8dkc-8" value="Call Transcription" style="ellipse;whiteSpace=wrap;html=1;rounded=0;" vertex="1" parent="1">
          <mxGeometry x="390" y="168.96" width="80" height="80" as="geometry" />
        </mxCell>
        <mxCell id="z6SMHL8GOWCFRZcB8dkc-13" value="" style="edgeStyle=orthogonalEdgeStyle;rounded=0;orthogonalLoop=1;jettySize=auto;html=1;" edge="1" parent="1" source="z6SMHL8GOWCFRZcB8dkc-10" target="z6SMHL8GOWCFRZcB8dkc-12">
          <mxGeometry relative="1" as="geometry">
            <Array as="points">
              <mxPoint x="340" y="440" />
              <mxPoint x="340" y="440" />
            </Array>
          </mxGeometry>
        </mxCell>
        <mxCell id="z6SMHL8GOWCFRZcB8dkc-26" value="" style="edgeStyle=orthogonalEdgeStyle;rounded=0;orthogonalLoop=1;jettySize=auto;html=1;" edge="1" parent="1" source="z6SMHL8GOWCFRZcB8dkc-10" target="z6SMHL8GOWCFRZcB8dkc-25">
          <mxGeometry relative="1" as="geometry" />
        </mxCell>
        <mxCell id="z6SMHL8GOWCFRZcB8dkc-10" value="Call Analysis" style="whiteSpace=wrap;html=1;rounded=0;" vertex="1" parent="1">
          <mxGeometry x="370" y="398.96" width="120" height="60" as="geometry" />
        </mxCell>
        <mxCell id="z6SMHL8GOWCFRZcB8dkc-12" value="Gemini&lt;br&gt;(API call)" style="whiteSpace=wrap;html=1;rounded=0;" vertex="1" parent="1">
          <mxGeometry x="100" y="410" width="120" height="60" as="geometry" />
        </mxCell>
        <mxCell id="z6SMHL8GOWCFRZcB8dkc-15" style="edgeStyle=orthogonalEdgeStyle;rounded=0;orthogonalLoop=1;jettySize=auto;html=1;entryX=0.75;entryY=1;entryDx=0;entryDy=0;" edge="1" parent="1" target="z6SMHL8GOWCFRZcB8dkc-25">
          <mxGeometry relative="1" as="geometry">
            <mxPoint x="390" y="570" as="targetPoint" />
            <mxPoint x="120" y="470" as="sourcePoint" />
            <Array as="points">
              <mxPoint x="120" y="470" />
              <mxPoint x="120" y="640" />
              <mxPoint x="660" y="640" />
            </Array>
          </mxGeometry>
        </mxCell>
        <mxCell id="z6SMHL8GOWCFRZcB8dkc-18" value="&lt;font style=&quot;font-size: 12px;&quot;&gt;Transcript Analysis&lt;/font&gt;" style="text;html=1;align=center;verticalAlign=middle;resizable=0;points=[];autosize=1;strokeColor=none;fillColor=none;" vertex="1" parent="1">
          <mxGeometry x="240" y="450" width="120" height="30" as="geometry" />
        </mxCell>
        <mxCell id="z6SMHL8GOWCFRZcB8dkc-19" value="KPIs" style="text;html=1;align=center;verticalAlign=middle;resizable=0;points=[];autosize=1;strokeColor=none;fillColor=none;" vertex="1" parent="1">
          <mxGeometry x="270" y="413.96" width="50" height="30" as="geometry" />
        </mxCell>
        <mxCell id="z6SMHL8GOWCFRZcB8dkc-21" value="" style="endArrow=classic;startArrow=classic;html=1;rounded=0;entryX=0.263;entryY=0.938;entryDx=0;entryDy=0;entryPerimeter=0;exitX=0.813;exitY=0.063;exitDx=0;exitDy=0;exitPerimeter=0;" edge="1" parent="1" source="z6SMHL8GOWCFRZcB8dkc-8" target="z6SMHL8GOWCFRZcB8dkc-22">
          <mxGeometry width="50" height="50" relative="1" as="geometry">
            <mxPoint x="445" y="168.96" as="sourcePoint" />
            <mxPoint x="502.03999999999996" y="119.99999999999997" as="targetPoint" />
          </mxGeometry>
        </mxCell>
        <mxCell id="z6SMHL8GOWCFRZcB8dkc-22" value="Apply Speaker Diaraization" style="ellipse;whiteSpace=wrap;html=1;aspect=fixed;" vertex="1" parent="1">
          <mxGeometry x="480" y="30" width="90" height="90" as="geometry" />
        </mxCell>
        <mxCell id="z6SMHL8GOWCFRZcB8dkc-24" value="" style="endArrow=classic;html=1;rounded=0;entryX=0;entryY=0.867;entryDx=0;entryDy=0;entryPerimeter=0;" edge="1" parent="1" target="z6SMHL8GOWCFRZcB8dkc-10">
          <mxGeometry width="50" height="50" relative="1" as="geometry">
            <mxPoint x="220" y="450" as="sourcePoint" />
            <mxPoint x="300" y="450" as="targetPoint" />
          </mxGeometry>
        </mxCell>
        <mxCell id="z6SMHL8GOWCFRZcB8dkc-29" style="edgeStyle=orthogonalEdgeStyle;rounded=0;orthogonalLoop=1;jettySize=auto;html=1;entryX=0.5;entryY=1;entryDx=0;entryDy=0;" edge="1" parent="1">
          <mxGeometry relative="1" as="geometry">
            <mxPoint x="150" y="470" as="targetPoint" />
            <mxPoint x="620" y="458.96000000000004" as="sourcePoint" />
            <Array as="points">
              <mxPoint x="620" y="600" />
              <mxPoint x="150" y="600" />
            </Array>
          </mxGeometry>
        </mxCell>
        <mxCell id="z6SMHL8GOWCFRZcB8dkc-33" value="" style="edgeStyle=orthogonalEdgeStyle;rounded=0;orthogonalLoop=1;jettySize=auto;html=1;" edge="1" parent="1" source="z6SMHL8GOWCFRZcB8dkc-25" target="z6SMHL8GOWCFRZcB8dkc-32">
          <mxGeometry relative="1" as="geometry" />
        </mxCell>
        <mxCell id="z6SMHL8GOWCFRZcB8dkc-25" value="Call to RAG" style="whiteSpace=wrap;html=1;rounded=0;" vertex="1" parent="1">
          <mxGeometry x="570" y="398.96" width="120" height="60" as="geometry" />
        </mxCell>
        <mxCell id="z6SMHL8GOWCFRZcB8dkc-27" value="" style="endArrow=classic;startArrow=classic;html=1;rounded=0;" edge="1" parent="1" target="z6SMHL8GOWCFRZcB8dkc-28">
          <mxGeometry width="50" height="50" relative="1" as="geometry">
            <mxPoint x="620" y="398.96" as="sourcePoint" />
            <mxPoint x="660" y="330" as="targetPoint" />
          </mxGeometry>
        </mxCell>
        <mxCell id="z6SMHL8GOWCFRZcB8dkc-28" value="Knowledge Base&lt;div&gt;(SOPs and Best Practices Examples)&lt;/div&gt;" style="ellipse;whiteSpace=wrap;html=1;" vertex="1" parent="1">
          <mxGeometry x="630" y="230" width="130" height="98.96" as="geometry" />
        </mxCell>
        <mxCell id="z6SMHL8GOWCFRZcB8dkc-30" value="Builds Prompt and Calls LLM API" style="text;html=1;align=center;verticalAlign=middle;resizable=0;points=[];autosize=1;strokeColor=none;fillColor=none;" vertex="1" parent="1">
          <mxGeometry x="300" y="570" width="200" height="30" as="geometry" />
        </mxCell>
        <mxCell id="z6SMHL8GOWCFRZcB8dkc-31" value="Returns Ideal Call Transcription with Diaraization&amp;nbsp;" style="text;html=1;align=center;verticalAlign=middle;resizable=0;points=[];autosize=1;strokeColor=none;fillColor=none;" vertex="1" parent="1">
          <mxGeometry x="260" y="640" width="290" height="30" as="geometry" />
        </mxCell>
        <mxCell id="z6SMHL8GOWCFRZcB8dkc-39" style="edgeStyle=orthogonalEdgeStyle;rounded=0;orthogonalLoop=1;jettySize=auto;html=1;entryX=1;entryY=0.5;entryDx=0;entryDy=0;" edge="1" parent="1" source="z6SMHL8GOWCFRZcB8dkc-32" target="z6SMHL8GOWCFRZcB8dkc-38">
          <mxGeometry relative="1" as="geometry" />
        </mxCell>
        <mxCell id="z6SMHL8GOWCFRZcB8dkc-32" value="Text-To-Speech&lt;div&gt;ElevenLabs(API)&lt;/div&gt;" style="whiteSpace=wrap;html=1;rounded=0;" vertex="1" parent="1">
          <mxGeometry x="700" y="740" width="120" height="60" as="geometry" />
        </mxCell>
        <mxCell id="z6SMHL8GOWCFRZcB8dkc-38" value="Humanized Audio Call&lt;div&gt;(Output)&lt;/div&gt;" style="ellipse;whiteSpace=wrap;html=1;" vertex="1" parent="1">
          <mxGeometry x="490" y="725" width="130" height="90" as="geometry" />
        </mxCell>
      </root>
    </mxGraphModel>
  </diagram>
</mxfile>
